<?xml version="1.0" encoding="UTF-8" standalone="no"?>
<!-- Generator: Adobe Illustrator 19.2.1, SVG Export Plug-In . SVG Version: 6.00 Build 0)  -->

<svg
   xmlns:dc="http://purl.org/dc/elements/1.1/"
   xmlns:cc="http://creativecommons.org/ns#"
   xmlns:rdf="http://www.w3.org/1999/02/22-rdf-syntax-ns#"
   xmlns:svg="http://www.w3.org/2000/svg"
   xmlns="http://www.w3.org/2000/svg"
   xmlns:sodipodi="http://sodipodi.sourceforge.net/DTD/sodipodi-0.dtd"
   xmlns:inkscape="http://www.inkscape.org/namespaces/inkscape"
   version="1.1"
   id="layer"
   x="0px"
   y="0px"
   viewBox="0 0 605 132"
   xml:space="preserve"
   inkscape:version="0.48.1 "
   width="100%"
   height="100%"
   sodipodi:docname="eukanuba logo.svg"><metadata
   id="metadata3019"><rdf:RDF><cc:Work
       rdf:about=""><dc:format>image/svg+xml</dc:format><dc:type
         rdf:resource="http://purl.org/dc/dcmitype/StillImage" /></cc:Work></rdf:RDF></metadata><defs
   id="defs3017" /><sodipodi:namedview
   pagecolor="#ffffff"
   bordercolor="#666666"
   borderopacity="1"
   objecttolerance="10"
   gridtolerance="10"
   guidetolerance="10"
   inkscape:pageopacity="0"
   inkscape:pageshadow="2"
   inkscape:window-width="1366"
   inkscape:window-height="705"
   id="namedview3015"
   showgrid="false"
   inkscape:zoom="1.6049287"
   inkscape:cx="274.36517"
   inkscape:cy="14.684333"
   inkscape:window-x="-8"
   inkscape:window-y="-8"
   inkscape:window-maximized="1"
   inkscape:current-layer="layer" />
<style
   type="text/css"
   id="style3010">
	.st0{fill:#E9078A;}
	.st1{fill:#FFFFFF;}
</style>

<g
   id="g3021"
   transform="translate(-19.1,-255.1)"><polygon
     points="59.1,321.1 21.6,257.8 621.6,257.8 621.6,384.4 21.6,384.4 "
     class="st0"
     id="Path"
     style="fill:#e9078a" /><path
     id="path3013"
     d="m 494.6,343.5 c 9,0 12.4,-6.5 12.4,-12 -9,0 -19.8,1.8 -19.8,7.2 0,3.1 2.6,4.8 7.4,4.8 m 12.4,1 h -0.2 c -1.9,2.6 -6,5.5 -15.6,5.5 -10.1,0 -17.6,-4 -17.6,-10.5 0,-13.2 25.1,-13.3 33.4,-13.5 v -4 c 0,-3.9 -1.5,-7.3 -8.4,-7.3 -7.6,0 -9.2,3.4 -9.2,6.1 h -13.6 c 0,-7.6 7.5,-12.7 22.7,-12.7 14.8,0 21.8,4.3 21.8,12.4 v 28.4 H 507 v -4.4 z m -60.7,-1 c 8.9,0 10.4,-7.8 10.4,-14.3 0,-7.2 -1.1,-14.9 -10.4,-14.9 -8.4,0 -11.1,8.2 -11.1,14.9 0.1,9.9 2.3,14.3 11.1,14.3 m -11,-29.5 h 0.2 c 1.9,-2 6.3,-5.7 15.5,-5.7 14.3,0 20.6,8.1 20.6,20.9 0,11.1 -5.8,20.8 -25.3,20.8 -15.7,0 -25,-5.9 -25,-17.8 v -40.9 h 14 V 314 z m -35.1,27.7 H 400 c -1.9,3 -6.8,8.4 -17.7,8.4 -8.8,0 -16.2,-4 -16.2,-13.1 v -27.7 h 14 V 332 c 0,8.1 1.3,9.3 6.2,9.3 9.3,0 14.1,-8.5 14.1,-14.8 v -17.3 h 13.9 v 39.9 h -13.9 v -7.4 z m -90.4,-32.5 h 13.9 v 7.5 h 0.2 c 1.9,-3 6.7,-8.4 17.7,-8.4 8.8,0 16.2,4 16.2,13.1 v 27.7 h -14 v -22.8 c 0,-8.1 -1.2,-9.3 -6.1,-9.3 -9.4,0 -14.1,8.5 -14.1,14.8 V 349 h -13.9 v -39.8 z m -33.7,34.3 c 9,0 12.4,-6.5 12.4,-12 -9.1,0 -19.9,1.8 -19.9,7.2 0.1,3.1 2.7,4.8 7.5,4.8 m 12.5,1 h -0.3 c -1.9,2.6 -6,5.5 -15.6,5.5 -10.1,0 -17.6,-4 -17.6,-10.5 0,-13.2 25.1,-13.3 33.4,-13.5 v -4 c 0,-3.9 -1.5,-7.3 -8.4,-7.3 -7.6,0 -9.2,3.4 -9.2,6.1 h -13.6 c 0,-7.6 7.5,-12.7 22.7,-12.7 14.8,0 21.8,4.3 21.8,12.4 v 28.4 h -13.3 v -4.4 z m -82.4,-53.2 h 13.9 v 33.2 l 19.4,-15.2 h 16.7 l -22.1,17.2 24.1,22.6 H 241.5 L 220.4,329 h -0.3 v 20.1 h -13.9 v -57.8 z m -22.1,50.4 h -0.3 c -1.9,3 -6.8,8.4 -17.7,8.4 -8.8,0 -16.2,-4 -16.2,-13.1 v -27.7 h 14 V 332 c 0,8.1 1.3,9.3 6.2,9.3 9.3,0 14.1,-8.5 14.1,-14.8 v -17.3 h 14 v 39.9 h -14 v -7.4 z M 94.3,291.3 H 145 v 7.5 h -36 v 16.7 h 34 v 7.5 h -34 v 18.8 h 37 v 7.5 H 94.3 v -58 z m 433.5,19.4 h -2.6 v -1.3 h 6.6 v 1.3 h -2.6 v 6.9 h -1.4 v -6.9 z m 6.2,-1.3 h 1.5 l 2.5,3.9 2.5,-3.9 h 1.5 v 8.2 h -1.4 v -5.9 l -2.6,3.9 h -0.1 l -2.5,-3.8 v 5.9 H 534 v -8.3 z"
     class="st1"
     inkscape:connector-curvature="0"
     style="fill:#ffffff" /></g>
</svg>