<?xml version="1.0" encoding="UTF-8" standalone="no"?>
<!-- Created with Inkscape (http://www.inkscape.org/) -->
<svg
   xmlns:dc="http://purl.org/dc/elements/1.1/"
   xmlns:cc="http://web.resource.org/cc/"
   xmlns:rdf="http://www.w3.org/1999/02/22-rdf-syntax-ns#"
   xmlns:svg="http://www.w3.org/2000/svg"
   xmlns="http://www.w3.org/2000/svg"
   xmlns:sodipodi="http://sodipodi.sourceforge.net/DTD/sodipodi-0.dtd"
   xmlns:inkscape="http://www.inkscape.org/namespaces/inkscape"
   width="772.40552"
   height="248.17322"
   id="svg6778"
   sodipodi:version="0.32"
   inkscape:version="0.44"
   version="1.0"
   sodipodi:docbase="C:\Dokumente und Einstellungen\Andreas\Eigene Dateien\Eigene Bilder\sonstiges\Logos\Vektor\other"
   sodipodi:docname="IAMS-Logo.svg">
  <defs
     id="defs6780" />
  <sodipodi:namedview
     id="base"
     pagecolor="#ffffff"
     bordercolor="#666666"
     borderopacity="1.0"
     inkscape:pageopacity="0.0"
     inkscape:pageshadow="2"
     inkscape:zoom="0.35"
     inkscape:cx="350"
     inkscape:cy="520"
     inkscape:document-units="px"
     inkscape:current-layer="layer1"
     height="70.04mm"
     width="217.99mm"
     inkscape:window-width="904"
     inkscape:window-height="574"
     inkscape:window-x="230"
     inkscape:window-y="230" />
  <metadata
     id="metadata6783">
    <rdf:RDF>
      <cc:Work
         rdf:about="">
        <dc:format>image/svg+xml</dc:format>
        <dc:type
           rdf:resource="http://purl.org/dc/dcmitype/StillImage" />
      </cc:Work>
    </rdf:RDF>
  </metadata>
  <g
     inkscape:label="Ebene 1"
     inkscape:groupmode="layer"
     id="layer1"
     transform="translate(217.8388,-276.0979)">
    <g
       id="g6795"
       transform="translate(3.549259,3.536609)">
      <path
         id="path25755"
         class="ps01"
         d="M 437.6644,307.35886 C 437.6644,292.11914 449.77774,279.61473 465.2129,279.61473 C 480.45261,279.61473 492.76202,292.11914 492.76202,307.35886 C 492.76202,322.79395 480.45261,335.10292 465.2129,335.10292 C 449.77774,335.10292 437.6644,322.79395 437.6644,307.35886 C 437.6644,307.35886 437.6644,307.35886 437.6644,307.35886 z "
         style="fill:#009a67;fill-rule:nonzero;stroke:none" />
      <path
         id="path25757"
         class="ps01"
         d="M 367.71794,304.03736 C 367.71794,288.60228 380.02672,276.09787 395.26643,276.09787 C 410.50615,276.09787 423.011,288.60228 423.011,304.03736 C 423.011,319.27708 410.50615,331.78142 395.26643,331.78142 C 380.02672,331.78142 367.71794,319.27708 367.71794,304.03736 C 367.71794,304.03736 367.71794,304.03736 367.71794,304.03736 z "
         style="fill:#009a67;fill-rule:nonzero;stroke:none" />
      <path
         id="path25759"
         class="ps01"
         d="M 487.29103,355.42256 C 487.29103,339.98747 499.79525,327.67843 515.03497,327.67843 C 530.2747,327.67843 542.58411,339.98747 542.58411,355.42256 C 542.58411,370.85765 530.2747,383.16662 515.03497,383.16662 C 499.79525,383.16662 487.29103,370.85765 487.29103,355.42256 C 487.29103,355.42256 487.29103,355.42256 487.29103,355.42256 z "
         style="fill:#009a67;fill-rule:nonzero;stroke:none" />
      <path
         id="path25761"
         class="ps01"
         d="M 492.17571,426.34583 C 492.17571,411.10612 504.48449,398.60171 519.91965,398.60171 C 535.15938,398.60171 547.46816,411.10612 547.46816,426.34583 C 547.46816,441.78092 535.15938,454.08989 519.91965,454.08989 C 504.48449,454.08989 492.17571,441.78092 492.17571,426.34583 C 492.17571,426.34583 492.17571,426.34583 492.17571,426.34583 z "
         style="fill:#009a67;fill-rule:nonzero;stroke:none" />
      <path
         id="path25763"
         class="ps01"
         d="M 360.0984,401.72782 C 360.0984,368.51303 386.86514,341.55046 419.88463,341.55046 C 452.90411,341.55046 479.67149,368.51303 479.67149,401.72782 C 479.67149,434.94256 452.90411,461.90512 419.88463,461.90512 C 386.86514,461.90512 360.0984,434.94256 360.0984,401.72782 C 360.0984,401.72782 360.0984,401.72782 360.0984,401.72782 z "
         style="fill:#009a67;fill-rule:nonzero;stroke:none" />
      <path
         id="path25765"
         class="ps01"
         d="M -160.98283,488.47693 C -160.98283,496.48754 -163.71832,503.3259 -169.18868,508.79657 C -174.65967,514.46262 -181.30266,517.19793 -189.11764,517.19793 C -197.12806,517.19793 -203.96648,514.46262 -209.43747,508.79657 C -215.10326,503.3259 -217.83876,496.48754 -217.83876,488.47693 C -217.83876,488.47693 -217.83876,368.12228 -217.83876,368.12228 C -217.83876,360.11167 -215.10326,353.27338 -209.43747,347.8027 C -203.96648,342.13665 -197.12806,339.40128 -189.11764,339.40128 C -181.30266,339.40128 -174.65967,342.13665 -169.18868,347.8027 C -163.71832,353.27338 -160.98283,360.11167 -160.98283,368.12228 C -160.98283,368.12228 -160.98283,488.47693 -160.98283,488.47693 z "
         style="fill:#009a67;fill-rule:nonzero;stroke:none" />
      <path
         id="path25767"
         class="ps01"
         d="M 13.883327,478.31715 C 13.883327,478.31715 -42.777166,357.96249 -42.777166,357.96249 C -48.639031,345.65352 -57.626005,339.40128 -69.73998,339.40128 C -82.439637,339.40128 -91.622679,345.65352 -97.288476,357.96249 C -97.288476,357.96249 -151.60435,478.31715 -151.60435,478.31715 C -152.58154,481.4432 -153.16722,484.76469 -153.16722,487.89081 C -153.16722,496.09679 -150.43235,502.93515 -144.76593,508.79657 C -139.10013,514.46262 -132.26171,517.19793 -124.05585,517.19793 C -117.80374,517.19793 -111.94188,515.4395 -106.86239,511.53188 C -101.78228,507.81964 -98.265664,502.73978 -96.311919,496.68292 C -96.311919,496.68292 -95.530169,492.7753 -95.530169,492.7753 C -95.530169,492.7753 -43.363478,492.7753 -43.363478,492.7753 C -43.363478,492.7753 -41.409733,496.68292 -41.409733,496.68292 C -39.651426,502.73978 -36.134181,507.81964 -31.054696,511.53188 C -25.974581,515.4395 -20.113347,517.19793 -13.860607,517.19793 C -5.6547519,517.19793 1.1836704,514.46262 6.8494675,508.79657 C 12.515265,502.93515 15.446197,496.09679 15.446197,487.89081 C 15.446197,484.76469 14.859885,481.4432 13.883327,478.31715 z M -58.01688,452.52683 C -61.14325,455.65295 -64.659865,457.02063 -68.95823,457.02063 C -73.256595,457.02063 -76.77384,455.65295 -79.899579,452.52683 C -82.830512,449.59615 -84.393382,445.88391 -84.393382,441.58554 C -84.393382,437.28712 -82.830512,433.57487 -79.899579,430.64419 C -76.77384,427.51808 -73.256595,425.95502 -68.95823,425.95502 C -64.659865,425.95502 -61.14325,427.51808 -58.01688,430.64419 C -55.086578,433.57487 -53.523078,437.28712 -53.523078,441.58554 C -53.523078,445.88391 -55.086578,449.59615 -58.01688,452.52683 z "
         style="fill:#009a67;fill-rule:nonzero;stroke:none" />
      <path
         id="path25769"
         class="ps01"
         d="M 147.91439,499.61366 C 145.96064,504.88896 142.44403,508.99195 137.55935,512.31344 C 132.87011,515.4395 127.59456,517.00256 121.73332,517.00256 C 116.06753,517.00256 110.79197,515.4395 106.10273,512.31344 C 101.41412,509.18732 98.092317,504.88896 96.138572,499.61366 C 96.138572,499.61366 82.26629,463.66355 82.26629,463.66355 C 82.26629,463.66355 82.657165,463.27281 82.657165,463.27281 C 82.657165,463.27281 77.186805,492.97067 77.186805,492.97067 C 75.818743,499.80903 72.693003,505.47508 67.612888,510.1642 C 62.337335,514.658 56.476101,517.00256 49.442241,517.00256 C 41.627261,517.00256 34.984277,514.26725 29.513917,508.79657 C 23.847489,503.13053 21.111994,496.68292 21.111994,488.67231 C 21.111994,487.50006 21.307432,485.937 21.502869,484.17857 C 21.502869,484.17857 40.650074,363.62854 40.650074,363.62854 C 41.822699,356.5948 44.948439,350.92876 50.223991,346.43502 C 55.304106,341.94128 61.556216,339.59666 68.590076,339.59666 C 74.060435,339.59666 79.14055,341.15972 84.220035,344.09046 C 89.104712,347.21651 92.621957,351.31957 94.965947,356.39943 C 94.965947,356.39943 121.73332,419.3121 121.73332,419.3121 C 121.73332,419.3121 150.64988,355.61793 150.64988,355.61793 C 156.51112,345.06733 164.52216,339.59666 174.8772,339.59666 C 181.91106,339.59666 188.16317,342.13665 193.43809,347.02114 C 198.90908,352.10107 202.23026,357.96249 203.40289,365.1916 C 203.40289,365.1916 222.94097,483.39701 222.94097,483.39701 C 223.1364,484.37394 223.1364,485.937 223.1364,488.08619 C 223.1364,495.90142 220.40091,502.73978 214.92992,508.6012 C 209.45956,514.07181 202.81657,517.00256 195.00159,517.00256 C 188.16317,517.00256 181.91106,514.658 176.63551,509.96882 C 171.16452,505.27971 168.03878,499.41828 166.86615,492.38455 C 166.86615,492.38455 161.98211,463.27281 161.98211,463.27281 C 161.98211,463.27281 147.91439,499.61366 147.91439,499.61366 z "
         style="fill:#009a67;fill-rule:nonzero;stroke:none" />
      <path
         id="path25771"
         class="ps01"
         d="M 291.91024,339.59666 C 304.02358,338.61978 316.13756,341.55046 327.86003,347.8027 C 341.34144,355.03175 347.78898,364.60541 347.78898,376.71907 C 347.78898,383.16662 346.03068,388.83267 342.12319,393.13103 C 338.02026,397.82021 332.94014,400.16477 326.29716,400.16477 C 321.21704,400.16477 315.94212,398.40633 310.47113,395.08484 C 305.97796,391.76341 301.28872,388.63729 296.79492,385.51117 C 295.81773,384.72968 294.4503,384.33893 292.69199,384.33893 C 287.80731,384.33893 285.26726,386.48811 285.26726,390.78647 C 285.26726,392.15416 285.65813,393.32641 286.24444,394.49872 C 287.61188,396.84327 292.10568,399.18783 299.92066,401.72782 C 302.26528,402.7047 307.14995,404.46313 314.57469,407.00312 C 326.68803,410.91074 336.26195,417.55366 343.88149,426.5412 C 351.69647,436.11487 355.40916,447.05616 355.40916,459.16982 C 355.40916,469.13423 352.67366,479.29402 347.00786,489.45387 C 338.41113,504.88896 322.58511,514.07181 299.92066,516.61181 C 295.81773,517.00256 292.49655,517.19793 289.9565,517.19793 C 277.84252,517.19793 266.70636,514.85337 256.3507,510.1642 C 244.62823,504.49815 236.42174,496.87829 231.73313,486.91388 C 229.77939,482.81089 228.99764,478.70789 228.99764,474.21416 C 228.99764,466.98505 231.34226,460.92825 236.0315,455.84832 C 240.5253,451.15921 246.58197,448.61921 253.81064,448.61921 C 260.45362,448.61921 266.90117,451.15921 273.15391,456.0437 C 275.88878,458.38825 278.81971,460.92825 281.5552,463.27281 C 285.26726,466.20349 288.39363,467.57117 290.93305,467.57117 C 292.69199,467.57117 294.4503,466.78967 295.81773,465.22661 C 297.3806,463.66355 298.16235,461.90512 298.16235,459.95131 C 298.16235,455.65295 293.08224,451.94071 282.92264,448.42384 C 268.0738,443.34398 257.32788,438.45943 250.88034,433.96569 C 238.9618,425.17352 232.70969,412.47374 232.70969,395.47565 C 232.70969,384.5343 235.24975,374.76526 240.32986,366.55922 C 250.09859,350.34263 267.29205,341.35509 291.91024,339.59666 z "
         style="fill:#009a67;fill-rule:nonzero;stroke:none" />
    </g>
  </g>
</svg>
