<?xml version="1.0" encoding="UTF-8" standalone="no"?>
<svg
   xmlns:dc="http://purl.org/dc/elements/1.1/"
   xmlns:cc="http://creativecommons.org/ns#"
   xmlns:rdf="http://www.w3.org/1999/02/22-rdf-syntax-ns#"
   xmlns:svg="http://www.w3.org/2000/svg"
   xmlns="http://www.w3.org/2000/svg"
   id="svg2"
   version="1.1"
   viewBox="0 0 799.99996 96.000006"
   height="120"
   width="1000">
  <metadata
     id="metadata13">
    <rdf:RDF>
      <cc:Work
         rdf:about="">
        <dc:format>image/svg+xml</dc:format>
        <dc:type
           rdf:resource="http://purl.org/dc/dcmitype/StillImage" />
        <dc:title></dc:title>
      </cc:Work>
    </rdf:RDF>
  </metadata>
  <defs
     id="defs11" />
  <g
     style="fill:#000000;fill-opacity:1"
     transform="matrix(1.1323739,0,0,1.1323739,-76.520622,-289.75922)"
     id="surface49">
    <path
       id="path5"
       d="m 754.27734,287.29297 c 0.0508,-2.84375 -0.0586,-6.12891 0,-8.91406 l -167.61718,0 0,4.53906 c -5.89454,-3.32031 -11.22266,-4.26953 -17.83985,-4.6875 -28.46484,0.0273 -57.29687,-0.0391 -85.73437,0.0117 l -0.13282,6.73437 c -16.67578,-6.35937 -27.3164,-8.29687 -41.52734,-8.8125 l -8.79687,0 c -16.82813,0.46094 -32.79297,3.34766 -48.13282,11.12891 l 0,-8.875 -42.02343,0 0,9.28125 c -10.48047,-6.91406 -20.67969,-9.01953 -32.69922,-9.26172 -74.14844,0.0352 -148.28907,-0.125 -222.406252,-0.0586 0.07813,13.41406 -0.08984,27.26171 0,40.71093 14.312502,0.008 28.781252,-0.0742 43.113282,-0.0234 l -0.0273,-14.81641 29.97266,0.0117 -0.0508,14.8125 150.19531,-0.0352 c 11,0 22.60156,-2.99609 31.90235,-9.36328 l 0,9.39844 42.02343,0 0,-8.5625 c 13.16797,7.73828 28.4336,9.51172 43.57032,9.875 l 8.83593,0 c 10.67969,-0.0117 24.1836,-0.875 37.27735,-4.91016 l 9.37109,-3.46484 -0.375,7.02734 -0.20312,0 41.92578,0.0352 0,-15.15625 10.74609,0 20.07813,15.12109 198.55468,0.0274 c -0.0312,-2.6875 0.0195,-5.875 0,-8.55469 l -56.73437,0 0,-6.59375 45.24219,0 0,-9.96094 -45.23829,0.0742 0,-6.73828 z m -599.19531,8.76562 -24.57812,-0.0469 0,-8.82422 24.57812,-0.0508 c 7.60156,-0.0117 7.84375,8.92578 0,8.92187 m 82.11719,14.45313 -35.03516,0 c -0.10547,-2.08203 0.0625,-4.50781 0.0156,-6.59375 11.69531,0.0273 23.3125,-0.0274 35.01953,0 z m 0,-16.55469 -35.03516,0 0,-6.66406 35.03516,0 z m 60.57031,16.55469 -19.57812,0 0,-23.21875 19.57812,0 c 15.48828,0 14.12891,22.10156 0,23.21875 m 46.375,-6.59375 0,-9.96094 38.75391,0 0.0586,9.96094 z m 138.94141,-7.09766 -46.50391,0 0,7.09766 19.71094,0 c -3.75,3.89844 -11.63672,6.59375 -20.33203,6.59375 -12.06641,0 -21.25,-5.21875 -21.25,-11.625 0,-6.39063 7.46875,-11.59375 21.92968,-11.59375 10.51172,0 17.32032,2.73437 20.27735,6.66406 l 26.16797,0 z m 65.92578,0 -24.11328,0 0,-9.52734 24.39843,0 c 6.38672,0 7.70313,9.52734 -0.28515,9.52734 m 37.64844,13.69141 -9.94141,-8.09766 c 2.74219,-0.34375 8.3125,-3.03515 9.94141,-5.59375 z m 72.2539,0 -34.86719,0 0,-6.59375 34.86719,0 z m 0,-16.55469 -34.86719,0 0,-6.66406 34.86719,0 z"
       style="fill:#000000;fill-opacity:1;fill-rule:nonzero;stroke:none" />
    <path
       id="path7"
       d="m 474.74609,314.96484 -0.9414,0.375 3.38281,3.69922 6.80469,0 0,-7.74609 c -3.02735,1.45703 -6.13282,2.625 -9.2461,3.67187"
       style="fill:#000000;fill-opacity:1;fill-rule:nonzero;stroke:none" />
  </g>
</svg>
